<?xml version="1.0" encoding="UTF-8"?> <svg xmlns="http://www.w3.org/2000/svg" viewBox="0 0 1524.21 544.09"><defs><style>.cls-1{fill:#69f;}.cls-1,.cls-2,.cls-3,.cls-4,.cls-5,.cls-6,.cls-7{fill-rule:evenodd;}.cls-2{fill:#00adfe;}.cls-3{fill:#0074ce;}.cls-4{fill:#00187a;}.cls-5{fill:#003c9e;}.cls-6{fill:#007ec7;}.cls-7{fill:#0cf;}.cls-8{fill:#fff;}</style></defs><title>Asset 5</title><g id="Layer_2" data-name="Layer 2"><g id="Wave_1" data-name="Wave 1"><g id="Layer_10" data-name="Layer 10"><path class="cls-1" d="M122.42,374.28l-.07-.15,0-.08,0-.08,0-.08,0-.07,0-.08,0-.08,0-.07,0-.08q-.94-2.08-1.84-4.21a132.57,132.57,0,0,1-9.59-38c-2-20,.48-39.34,6.86-59.07,1.18-3.54,2.51-7.07,4-10.54,9.62-19.64,16.14-32.09,31.88-48.62a169.08,169.08,0,0,1,53.22-37.47A165.7,165.7,0,0,1,247,163.35c25.53-2.38,75.2,6.07,100.25,29.55C235.81,136.77,117.93,217.52,122.42,374.28Z"></path></g><g id="Layer_9" data-name="Layer 9"><path class="cls-2" d="M85.41,318.36a194.3,194.3,0,0,1-2.52-51.46C89.73,185,145,115.49,218.92,82.36c73.73-33,162.82-27.87,228.25,21.39a192.24,192.24,0,0,1,56.75,68l2.67,5.36A239.81,239.81,0,0,0,338.09,27.4C174.36-12.32,55.16,138.32,80,292.93Q82.1,305.92,85.41,318.36Z"></path></g><g id="Layer_8" data-name="Layer 8"><path class="cls-3" d="M163.52,181.43c70.07-64,174.09-64.73,235.41-2.83l-.13-.16-.07-.08-.07-.08-.07-.08-.06-.08-.07-.08-.07-.08-.07-.08-.07-.08q-1.85-2.16-3.78-4.27a175.11,175.11,0,0,0-103.85-55.36l-.65-.1c-.93-.14-1.88-.26-2.82-.38l-1.56-.2c-.62-.08-1.24-.14-1.86-.21l-2.56-.27-.87-.07c-1.17-.11-2.34-.21-3.52-.29h0A175.88,175.88,0,0,0,134.66,410.71q2.29,2.51,4.65,4.91C83.23,348.93,93.44,245.4,163.52,181.43Z"></path></g><g id="Layer_7" data-name="Layer 7"><path class="cls-3" d="M79.59,291C57.52,153.58,140.28,25.4,265.54,0l-.31,0-.15,0-.15,0h-.16l-.15,0-.15,0-.16,0-.15,0-.15,0q-4.14.54-8.28,1.2a258,258,0,1,0,91.6,507.72C220.42,524.23,101.67,428.41,79.59,291Z"></path></g><g id="Layer_6" data-name="Layer 6"><path class="cls-4" d="M91.65,433.39C1.07,330.74,2.5,180.67,93.29,93.71l-.24.19-.11.1-.12.1-.12.09-.12.1-.11.1-.12.09-.12.1-.11.1C90,96.42,87.93,98.2,85.86,100A252.66,252.66,0,0,0,3.48,248.5l-.16.93c-.22,1.35-.42,2.7-.62,4.06-.11.75-.23,1.5-.33,2.25s-.23,1.79-.34,2.68c-.16,1.23-.32,2.45-.45,3.68l-.13,1.26c-.18,1.69-.36,3.37-.5,5.06v0A252.75,252.75,0,0,0,40.79,428.29q3.56,5.47,7.33,10.7l.4.55q1.51,2.08,3.06,4.13t3.2,4.12l.39.5q4,5,8.33,9.94A252.66,252.66,0,0,0,212,540.61l.93.16c1.35.22,2.7.42,4.06.62l2.25.33,2.68.34c1.23.16,2.45.32,3.68.45l1.26.13c1.69.18,3.37.35,5.06.5h0A252.75,252.75,0,0,0,391.77,503.3q5.48-3.56,10.7-7.33l.55-.4q2.09-1.51,4.13-3.07c1.38-1,2.76-2.11,4.12-3.19l.5-.39q5-4,9.94-8.34,3.66-3.24,7.18-6.58C331.33,553.27,182.23,536,91.65,433.39Z"></path></g><g id="Layer_5" data-name="Layer 5"><path class="cls-5" d="M438.74,457.3a106.31,106.31,0,0,1-27.6,15.76c-118.08,46.6-312.56-51.6-258.73-190.12C63.41,436.4,301.54,556.43,427.1,467.27A100,100,0,0,0,438.74,457.3Z"></path></g><g id="Layer_4" data-name="Layer 4"><path class="cls-4" d="M320.09,109.82c95.43,19.4,153.52,101.63,132.45,185.47l.07-.19,0-.1,0-.1,0-.1,0-.1,0-.1,0-.1,0-.1,0-.1c.6-1.8,1.16-3.6,1.71-5.43a165.33,165.33,0,0,0,6.92-47.13c-.12-50.47-24.2-97.09-65.6-127.1A172.49,172.49,0,0,0,353,92.13,183,183,0,0,0,327.46,85a192.86,192.86,0,0,0-50.1-3.48,203.19,203.19,0,0,0-72.6,18.41l-.62.28-2.72,1.3-1.5.73-1.77.89-2.41,1.24-.82.43c-1.09.58-2.19,1.17-3.27,1.77h0A198.8,198.8,0,0,0,136.9,151,184.86,184.86,0,0,0,110,192.56,173.63,173.63,0,0,0,100.75,217q-1,3.24-1.79,6.48C127.18,141.05,224.66,90.43,320.09,109.82Z"></path></g><g id="Layer_3" data-name="Layer 3"><path class="cls-6" d="M173.9,297.24c18-54.58,69-86.56,115.21-73l-.11,0-.05,0-.06,0-.05,0-.06,0,0,0-.05,0-.06,0-.05,0c-1-.37-2-.73-3-1.07a88.66,88.66,0,0,0-26.31-4.82,93.34,93.34,0,0,0-39.11,7.52l-.35.15-1.48.65-.83.37-1,.46-1.32.64-.46.22-1.8.92h0a105.57,105.57,0,0,0-30.79,24.57A113.92,113.92,0,0,0,166.24,278a117.29,117.29,0,0,0-11.57,43.37,112.41,112.41,0,0,0,5.17,42.11c.82,2.58,1.79,5.18,2.82,7.66a100.1,100.1,0,0,0,21.28,32.31,92.45,92.45,0,0,0,21.69,16.19,88.43,88.43,0,0,0,13.21,5.78c1.18.41,2.37.79,3.56,1.15C177.58,408.84,155.9,351.83,173.9,297.24Z"></path></g><g id="Layer_2-2" data-name="Layer 2"><path class="cls-7" d="M302,210.12c62.88,13.59,100.78,66.63,86.44,119.65l0-.12,0-.06,0-.07,0-.06,0-.06,0-.07,0-.06,0-.06,0-.06c.4-1.14.79-2.28,1.16-3.43a101.06,101.06,0,0,0,4.81-29.87c.18-32.09-15.46-62-42.63-81.67a120.74,120.74,0,0,0-45-19.76,132.84,132.84,0,0,0-33-2.88,137.35,137.35,0,0,0-48,10.74l-.42.18c-.6.25-1.2.52-1.79.79l-1,.44-1.17.54L220,205l-.54.26c-.73.36-1.45.71-2.17,1.08h0c-30.94,15.81-54.6,42.21-63,73C173.29,227.31,239.15,196.52,302,210.12Z"></path></g></g><g id="Text"><path class="cls-8" d="M237.67,287.71h43V426.54h-43Z"></path><path class="cls-8" d="M311.72,287.71h40.06l52.27,76.81V287.71h40.44V426.54H404.05l-52-76.23v76.23H311.72Z"></path><path class="cls-8" d="M473.28,287.71h40.05l52.27,76.81V287.71H606V426.54H565.6l-52-76.23v76.23H473.28Z"></path><path class="cls-8" d="M629.14,357.22q0-34,18.94-52.94t52.75-18.94q34.67,0,53.41,18.61T773,356.08q0,24.35-8.19,39.92a58.46,58.46,0,0,1-23.68,24.24q-15.48,8.67-38.59,8.66-23.47,0-38.87-7.48t-24.95-23.67Q629.14,381.55,629.14,357.22Zm42.9.19q0,21,7.81,30.21t21.26,9.18q13.83,0,21.4-9t7.58-32.3q0-19.59-7.91-28.64t-21.44-9q-13,0-20.84,9.18T672,357.41Z"></path><path class="cls-8" d="M774.13,287.71H819l31.24,99.91,30.85-99.91H924.6L873.05,426.54h-46.5Z"></path><path class="cls-8" d="M940.32,287.71h43V426.54h-43Z"></path><path class="cls-8" d="M1006.6,380.61l40.82-2.56q1.32,9.94,5.4,15.15,6.62,8.43,18.94,8.43,9.18,0,14.15-4.31t5-10q0-5.4-4.73-9.66t-22-8q-28.22-6.35-40.25-16.86a33.9,33.9,0,0,1-12.12-26.8,36.4,36.4,0,0,1,6.21-20.22q6.19-9.51,18.65-15t34.14-5.45q26.61,0,40.58,9.9T1128,326.73l-40.44,2.36q-1.6-9.37-6.77-13.63t-14.25-4.26q-7.48,0-11.27,3.17a9.72,9.72,0,0,0-3.79,7.72,7.69,7.69,0,0,0,3.13,6q3,2.74,14.39,5.12,28.13,6.06,40.29,12.26T1127,360.82a39,39,0,0,1,5.54,20.55,44,44,0,0,1-7.39,24.62,46.17,46.17,0,0,1-20.64,17.09q-13.26,5.82-33.43,5.82-35.41,0-49-13.63T1006.6,380.61Z"></path><path class="cls-8" d="M1155.85,287.71h43V426.54h-43Z"></path><path class="cls-8" d="M1224.22,357.22q0-34,18.94-52.94t52.74-18.94q34.66,0,53.41,18.61t18.75,52.13q0,24.35-8.19,39.92a58.4,58.4,0,0,1-23.68,24.24q-15.48,8.67-38.58,8.66-23.49,0-38.88-7.48t-25-23.67Q1224.21,381.55,1224.22,357.22Zm42.89.19q0,21,7.82,30.21t21.25,9.18q13.83,0,21.41-9t7.57-32.3q0-19.59-7.9-28.64t-21.45-9q-13,0-20.84,9.18T1267.11,357.41Z"></path><path class="cls-8" d="M1391.45,287.71h40.06l52.27,76.81V287.71h40.43V426.54h-40.43l-52-76.23v76.23h-40.34Z"></path></g></g></svg> 